<svg width="56" height="56" viewBox="0 0 56 56" fill="none" xmlns="http://www.w3.org/2000/svg">
<rect width="56" height="56" rx="4" fill="#202020"/>
<path d="M25 38C25.5523 38 26 37.5523 26 37C26 36.4477 25.5523 36 25 36C24.4477 36 24 36.4477 24 37C24 37.5523 24.4477 38 25 38Z" stroke="white" stroke-width="2" stroke-linecap="round" stroke-linejoin="round"/>
<path d="M36 38C36.5523 38 37 37.5523 37 37C37 36.4477 36.5523 36 36 36C35.4477 36 35 36.4477 35 37C35 37.5523 35.4477 38 36 38Z" stroke="white" stroke-width="2" stroke-linecap="round" stroke-linejoin="round"/>
<path d="M17 17H21L23.68 30.39C23.7714 30.8504 24.0219 31.264 24.3875 31.5583C24.7532 31.8526 25.2107 32.009 25.68 32H35.4C35.8693 32.009 36.3268 31.8526 36.6925 31.5583C37.0581 31.264 37.3086 30.8504 37.4 30.39L39 22H22" stroke="white" stroke-width="2" stroke-linecap="round" stroke-linejoin="round"/>
</svg>
