<svg width="22.000000" height="20.000000" viewBox="0 0 22 20" fill="none" xmlns="http://www.w3.org/2000/svg" xmlns:xlink="http://www.w3.org/1999/xlink">
	<desc>
			Created with Pixso.
	</desc>
	<defs/>
	<path id="Vector" d="M10.74 19.16L5.66 14.07L-0.18 11.06L0.76 4.49L-0.18 0.02L10.74 2.18L10.74 19.16Z" fill="#61D8DE" fill-opacity="1.000000" fill-rule="nonzero"/>
	<path id="Vector" d="M10.74 19.13L15.81 14.04L21.65 11.06L20.71 4.49L21.65 0.02L10.74 2.18L10.74 19.13Z" fill="#4CC8C0" fill-opacity="1.000000" fill-rule="nonzero"/>
	<path id="Vector" d="M21.62 10.85L13.42 2.72L21.62 0L20.74 4.61L21.62 10.85Z" fill="#36C1BF" fill-opacity="1.000000" fill-rule="nonzero"/>
	<path id="Vector" d="M-0.12 10.85L8.11 2.69L-0.12 0L0.79 4.61L-0.12 10.85Z" fill="#36C1BF" fill-opacity="1.000000" fill-rule="nonzero"/>
	<path id="Vector" d="M20.71 4.55C20.56 4.58 13.45 2.78 13.45 2.78L21.56 0.05L20.71 4.55Z" fill="#22ACA7" fill-opacity="1.000000" fill-rule="nonzero"/>
	<path id="Vector" d="M0.79 4.58C0.94 4.61 8.05 2.8 8.05 2.8L-0.06 0.08L0.79 4.58Z" fill="#22ACA7" fill-opacity="1.000000" fill-rule="nonzero"/>
	<path id="Vector" d="M12.36 17.53L10.74 16.44L9.11 17.53L10.74 19.13L12.36 17.53Z" fill="#B1DCE3" fill-opacity="1.000000" fill-rule="nonzero"/>
</svg>
