<svg width="1440.000000" height="556.000000" viewBox="0 0 1440 556" fill="none" xmlns="http://www.w3.org/2000/svg" xmlns:xlink="http://www.w3.org/1999/xlink">
	<desc>
			Created with Pixso.
	</desc>
	<defs>
		<clipPath id="clip135_317">
			<rect width="472.000000" height="481.000000" transform="translate(88.000000 0.000000)" fill="white" fill-opacity="0"/>
		</clipPath>
		<clipPath id="clip135_357">
			<rect width="458.000000" height="415.000000" transform="translate(900.000000 33.000000)" fill="white" fill-opacity="0"/>
		</clipPath>
	</defs>
	<path d="M1440 468.23L1440 556L0 556L0 470.44C103.59 392.18 387.49 336 721.49 336C1052.32 336 1334.02 391.12 1440 468.23Z" fill="#F8D1DF" fill-opacity="1.000000" fill-rule="nonzero"/>
	<rect width="472.000000" height="481.000000" transform="translate(88.000000 0.000000)" fill="#FFFFFF" fill-opacity="0"/>
	<g clip-path="url(#clip135_317)">
		<path d="M459.73 205.91C417.92 196.25 371.72 193.89 362.43 194.74L269.71 199.39C202.98 210.38 126.51 270.2 105.13 313.14C61.84 399.69 103.43 471.19 197.69 472.86C224.22 473.33 226.59 428.24 221.76 402.13C282 385.07 354.91 372.63 435.29 366.48C476.42 398.79 559.83 373.77 559.83 313.14C559.83 255.36 501.55 215.56 459.73 205.91Z" fill="#5A0650" fill-opacity="1.000000" fill-rule="nonzero"/>
		<path d="M392.84 115.56C401.47 144.97 382.4 153.35 371.79 153.86C347.69 169.69 294.84 200.02 276.27 194.71C253.07 188.07 250.37 179.9 249.29 162.03C209.9 142.11 243.82 118.38 232.51 102.92C213.41 76.82 256.89 42.43 282.49 55.27C288.18 26.68 349.53 22.54 359.38 51.73C386.9 49.69 407.95 87.98 392.84 115.56Z" fill="#632914" fill-opacity="1.000000" fill-rule="nonzero"/>
		<path d="M377.45 116.09C392.25 160.43 377.65 213.55 345.29 206.86C336.95 226.6 370.98 256.37 328.28 256.37C302.34 256.37 279.64 239.92 265.3 227.19C259.69 222.21 259.93 213.43 264.65 207.6C273.47 196.7 282.32 183.27 283.08 166.43C259.47 167.65 255.44 144.92 262.5 133.58C271.07 119.8 281.77 133.94 288.08 142.38C289.67 144.51 293.93 144.14 295.49 141.99C297.78 138.85 300.35 134.41 300.23 127.77C300.04 117.51 316.12 123.3 324.64 110.68C333.62 113.12 357.6 107.02 360.86 85.46C366.23 89.75 371.79 99.14 377.45 116.09Z" fill="#FCBA8B" fill-opacity="1.000000" fill-rule="nonzero"/>
		<path d="M275.95 329.07L275.98 327.11C275.98 327.11 290.93 324.29 296.89 320.09C302.12 316.4 305.69 313.21 310.18 313.58C315.93 308.58 359.95 260.87 373.36 254.15C386.78 247.42 391.9 253.05 383.62 263.09C375.34 273.13 325.12 303.86 317.92 320.64C313.43 331.03 311.08 337.22 274.67 340.63L274.77 338.57C274.77 338.57 295.8 334.73 295.4 332.54C295.38 331.55 275.94 334.93 275.94 334.93L276 332.66C276 332.66 294.61 328.56 294.45 327.26C294.29 325.95 275.95 329.07 275.95 329.07Z" fill="#FFFFFF" fill-opacity="1.000000" fill-rule="nonzero"/>
		<path d="M409.56 289.62C415.52 294.65 424.23 293.17 432.35 291.79C435.14 291.31 437.79 292.94 438.44 295.63C440.58 304.62 443.99 324.98 435.92 341.02C433.1 346.65 418.93 335.51 412.65 338.62C396.08 347.63 371.44 333.68 368.59 329.61C365.74 325.54 364.11 325.54 354.75 326.36C345.39 327.17 342.55 319.44 349.06 314.15C337.66 317.41 333.59 312.52 335.63 308.86C337.66 305.2 358.82 299.5 368.59 297.47C365.74 293.8 351.91 295.63 348.24 297.47C347.43 301.94 342.95 306.42 335.63 306.01C331.97 306.01 334 293.4 337.26 288.11C340.51 282.82 358.01 282 364.11 279.97C359.64 275.09 353.94 278.34 349.06 279.97C344.17 281.6 337.66 283.22 337.26 279.97C336.85 273.86 349.06 268.57 358.82 264.1C368.55 259.64 382.32 270.12 388.05 272.62C388.1 272.64 388.15 272.65 388.19 272.66C402.36 275.93 402.25 283.75 409.56 289.62Z" fill="#FCBA8B" fill-opacity="1.000000" fill-rule="nonzero"/>
		<path d="M372.66 177.97C365.37 174.86 358.08 180.3 357.27 180.3C354.04 177.19 346.42 174.55 341.89 176.41C340.27 186.52 351.61 189.63 357.27 189.63C362.94 189.63 368.61 186.52 372.66 177.97Z" fill="#CA5919" fill-opacity="1.000000" fill-rule="nonzero"/>
		<path d="M372.42 137.95C375.92 137.12 379.86 137.43 382.42 140.04L380.1 142.25C379.78 141.92 373.88 139.17 367.37 144.11L364.82 142.16C367.06 139.29 368.87 138.78 372.42 137.95Z" fill="#0E0E10" fill-opacity="1.000000" fill-rule="nonzero"/>
		<path d="M333.76 139.53C330.16 139.63 326.43 140.93 324.64 144.11L327.46 145.65C327.69 145.25 332.43 140.69 342.37 145.25L344.33 142.72C341.4 140.53 337.4 139.43 333.76 139.53Z" fill="#0E0E10" fill-opacity="1.000000" fill-rule="nonzero"/>
		<path d="M364.11 127.02C365.18 126.27 377.81 121.12 384.05 125.74C385.71 126.97 387.31 128.18 386.49 131.63C381.94 128.81 371.93 130.93 365.28 132.43C360.86 133.42 361.26 128.18 364.11 127.02Z" fill="#0E0E10" fill-opacity="1.000000" fill-rule="nonzero"/>
		<path d="M344.51 127.02C340.67 125.41 326.41 123.26 319.76 128.99C317.72 130.76 316.1 134.28 317.32 137.54C322.5 134.87 334.99 131.65 342.55 133.06C349.63 134.39 347.41 127.91 344.51 127.02Z" fill="#0E0E10" fill-opacity="1.000000" fill-rule="nonzero"/>
		<path d="M222.64 394.88C211.38 401.28 207.97 398.43 199.85 397.04C197.06 396.57 194.41 398.19 193.76 400.89C191.62 409.88 188.21 430.24 196.28 446.28C199.09 451.91 213.27 440.77 219.55 443.88C228.03 448.02 243.19 447.85 251.23 446.52C253.07 446.21 255.24 447.23 256.72 448.37C260.71 451.44 268.7 454.47 268.7 455.76C268.7 457.43 266.78 463.85 261.51 460.52C256.24 457.19 248.81 461.95 250.97 463.85C253.13 465.75 269.66 472.64 277.57 474.54C285.47 476.45 287.15 472.17 288.35 469.08C293.14 468.84 295.05 458.62 293.62 445.78C294.34 449.58 299.85 455.53 301.04 465.99C302.24 476.45 312.3 485.96 311.59 476.68C310.87 467.41 308.71 443.64 303.68 437.23C298.65 430.82 283.07 416.77 273.01 407.2C266.05 400.89 233.91 388.48 222.64 394.88Z" fill="#FCBA8B" fill-opacity="1.000000" fill-rule="nonzero"/>
		<path d="M360.67 149.75C360.67 149.75 367.27 160.47 364.77 165.83C362.26 171.19 354.75 168.71 354.75 168.71" stroke="#D58E54" stroke-opacity="1.000000" stroke-width="4.000000" stroke-linejoin="round"/>
	</g>
	<rect width="90.000000" height="132.000000" transform="translate(486.000000 360.000000)" fill="#FFFFFF" fill-opacity="0"/>
	<path d="M531 360C548.67 360 563 362.23 563 365C567 375 576 399.1 576 415.5C576 433.48 559.96 448.43 538.85 451.44C538.85 451.44 535.46 467.36 537.19 468.09C538.92 468.82 540 469.85 540 471C540 471.98 539.2 472.88 537.87 473.58C536.54 474.27 542.74 482.02 551.89 482.92C561.03 483.83 567 485.32 567 487C567 489.76 550.88 492 531 492C511.11 492 495 489.76 495 487C495 485.32 500.96 483.83 510.1 482.92C519.25 482.02 525.45 474.27 524.12 473.58C522.8 472.88 522 471.98 522 471C522 469.85 523.07 468.82 524.81 468.09C526.53 467.36 523.14 451.44 523.14 451.44C502.03 448.43 486 433.48 486 415.5C486 406.3 494.33 378 499 365C499 362.23 513.32 360 531 360Z" fill="#FFE8C5" fill-opacity="1.000000" fill-rule="nonzero"/>
	<path d="M569 418C569 431.8 552.21 443 531.5 443C510.78 443 494 431.8 494 418C494 408.94 496.47 402.74 499.03 399L563 399C565.78 403.31 569 410.05 569 418Z" fill="#EF8F50" fill-opacity="1.000000" fill-rule="evenodd"/>
	<ellipse cx="531.000000" cy="399.000000" rx="32.000000" ry="7.000000" fill="#CA5919" fill-opacity="1.000000"/>
	<rect width="238.000015" height="191.000000" transform="translate(610.000000 286.000000)" fill="#FFFFFF" fill-opacity="0"/>
	<path d="M775.5 297L775.49 297C773.76 297 772.23 297.88 771.33 299.21C770.07 298.22 768.34 297.85 766.69 298.38L766.68 298.39C765.03 298.92 763.85 300.23 763.41 301.79C761.9 301.23 760.15 301.42 758.74 302.44L758.73 302.44C757.33 303.46 756.62 305.07 756.68 306.68C755.07 306.62 753.46 307.33 752.44 308.73L752.44 308.74C751.42 310.15 751.23 311.9 751.79 313.41C750.23 313.85 748.92 315.03 748.39 316.68L748.38 316.69C747.85 318.34 748.22 320.07 749.21 321.33C747.88 322.23 747 323.76 747 325.49L747 325.5C747 327.23 747.88 328.76 749.21 329.66C748.22 330.92 747.85 332.65 748.38 334.3L748.39 334.31C748.92 335.96 750.23 337.14 751.79 337.58C751.23 339.09 751.42 340.84 752.44 342.25L752.44 342.26C753.46 343.66 755.07 344.37 756.68 344.31C756.62 345.92 757.33 347.53 758.73 348.55L758.74 348.56C760.15 349.57 761.9 349.76 763.41 349.2C763.85 350.76 765.03 352.07 766.68 352.6L766.69 352.61C768.34 353.14 770.07 352.78 771.33 351.78C772.23 353.11 773.76 354 775.49 354L775.5 354C777.23 354 778.76 353.11 779.66 351.78C780.92 352.78 782.65 353.14 784.3 352.61L784.31 352.6C785.96 352.07 787.14 350.76 787.58 349.2C789.09 349.76 790.84 349.57 792.25 348.56L792.26 348.55C793.66 347.53 794.37 345.92 794.31 344.31C795.92 344.37 797.53 343.66 798.55 342.26L798.56 342.25C799.57 340.84 799.76 339.09 799.2 337.58C800.76 337.14 802.07 335.96 802.6 334.31L802.61 334.3C803.14 332.65 802.78 330.92 801.78 329.66C803.11 328.76 804 327.23 804 325.5L804 325.49C804 323.76 803.11 322.23 801.78 321.33C802.78 320.07 803.14 318.34 802.61 316.69L802.6 316.68C802.07 315.03 800.76 313.85 799.2 313.41C799.76 311.9 799.57 310.15 798.56 308.74L798.55 308.73C797.53 307.33 795.92 306.62 794.31 306.68C794.37 305.07 793.66 303.46 792.26 302.44L792.25 302.44C790.84 301.42 789.09 301.23 787.58 301.79C787.14 300.23 785.96 298.92 784.31 298.39L784.3 298.38C782.65 297.85 780.92 298.22 779.66 299.21C778.76 297.88 777.23 297 775.5 297Z" fill="#CA5919" fill-opacity="1.000000" fill-rule="nonzero"/>
	<path d="M661.5 286L661.49 286C659.76 286 658.23 286.88 657.33 288.21C656.07 287.22 654.34 286.85 652.69 287.38L652.68 287.39C651.03 287.92 649.85 289.23 649.41 290.79C647.9 290.23 646.15 290.42 644.74 291.44L644.73 291.44C643.33 292.46 642.62 294.07 642.68 295.68C641.07 295.62 639.46 296.33 638.44 297.73L638.44 297.74C637.42 299.15 637.23 300.9 637.79 302.41C636.23 302.85 634.92 304.03 634.39 305.68L634.38 305.69C633.85 307.34 634.21 309.07 635.21 310.33C633.88 311.23 633 312.76 633 314.49L633 314.5C633 316.23 633.88 317.76 635.21 318.66C634.21 319.92 633.85 321.65 634.38 323.3L634.39 323.31C634.92 324.96 636.23 326.14 637.79 326.58C637.23 328.09 637.42 329.84 638.44 331.25L638.44 331.26C639.46 332.66 641.07 333.37 642.68 333.31C642.62 334.92 643.33 336.53 644.73 337.55L644.74 337.56C646.15 338.57 647.9 338.76 649.41 338.2C649.85 339.76 651.03 341.07 652.68 341.6L652.69 341.61C654.34 342.14 656.07 341.78 657.33 340.78C658.23 342.11 659.76 343 661.49 343L661.5 343C663.23 343 664.76 342.11 665.66 340.78C666.92 341.78 668.65 342.14 670.3 341.61L670.31 341.6C671.96 341.07 673.14 339.76 673.58 338.2C675.09 338.76 676.84 338.57 678.25 337.56L678.26 337.55C679.66 336.53 680.37 334.92 680.31 333.31C681.92 333.37 683.53 332.66 684.55 331.26L684.56 331.25C685.57 329.84 685.76 328.09 685.2 326.58C686.76 326.14 688.07 324.96 688.6 323.31L688.61 323.3C689.14 321.65 688.78 319.92 687.78 318.66C689.11 317.76 690 316.23 690 314.5L690 314.49C690 312.76 689.11 311.23 687.78 310.33C688.78 309.07 689.14 307.34 688.61 305.69L688.6 305.68C688.07 304.03 686.76 302.85 685.2 302.41C685.76 300.9 685.57 299.15 684.56 297.74L684.55 297.73C683.53 296.33 681.92 295.62 680.31 295.68C680.37 294.07 679.66 292.46 678.26 291.44L678.25 291.44C676.84 290.42 675.09 290.23 673.58 290.79C673.14 289.23 671.96 287.92 670.31 287.39L670.3 287.38C668.65 286.85 666.92 287.22 665.66 288.21C664.76 286.88 663.23 286 661.5 286Z" fill="#CA5919" fill-opacity="1.000000" fill-rule="nonzero"/>
	<ellipse cx="729.000000" cy="379.000000" rx="119.000000" ry="23.000000" fill="#D2F5F5" fill-opacity="1.000000"/>
	<ellipse cx="729.000000" cy="454.000000" rx="61.000000" ry="23.000000" fill="#FFFFFF" fill-opacity="1.000000"/>
	<path d="M720.15 412.77C725.03 412.34 729.74 411.31 734.19 409.74C744.32 426.67 762.84 438 784 438C816.03 438 842 412.03 842 380C842 347.96 816.03 322 784 322C772.61 322 760.88 317.75 752.14 310.45C742.08 302.05 729.13 297 715 297C700.84 297 687.87 302.06 677.8 310.49C670.65 316.47 662.31 321.21 653.53 324.34C631.07 332.34 615 353.79 615 379C615 411.03 640.96 437 673 437C692.43 437 709.63 427.44 720.15 412.77Z" fill="#FFBB55" fill-opacity="1.000000" fill-rule="nonzero"/>
	<path d="M808.5 402C811.16 393.83 813.2 375.9 800 369.5C783.5 361.5 749.5 363 738.5 350C727.5 337 706.5 314.68 684 326.68M781.5 403C784.16 398.66 786.7 388.9 775.5 384.5C761.5 379 731.5 384 720.5 367C709.5 350 695 328.99 668.5 335.49M648.66 347.5C638.16 347.66 617.7 357 618.5 395M722 407.5C721.5 406.5 701.5 402 696 379.5C689.83 354.28 658 358 655 378C652.59 394 660 401.33 664 403M682.29 430.17C655.62 430.17 634 408.62 634 382.04C634 361.98 646.3 344.79 663.8 337.56C672.4 334.01 680.77 329.26 688.22 323.67C696.3 317.6 706.35 314 717.26 314C729.01 314 739.78 318.18 748.16 325.14C755.46 331.2 765.22 334.74 774.7 334.74C801.38 334.74 823 356.29 823 382.87C823 409.45 801.38 431 774.7 431" stroke="#FFF0BD" stroke-opacity="1.000000" stroke-width="6.000000" stroke-linejoin="round"/>
	<path d="M715 297C729.13 297 742.08 302.05 752.14 310.45C760.88 317.75 772.61 322 784 322C802.58 322 819.12 330.73 829.73 344.32C821.15 355.88 789.1 379 729.5 379C669.9 379 636 355.88 626.5 344.32C633.28 335.24 642.65 328.22 653.53 324.34C662.31 321.21 670.65 316.47 677.8 310.49C687.87 302.06 700.84 297 715 297Z" fill="#EF8F50" fill-opacity="1.000000" fill-rule="evenodd"/>
	<path d="M729 402C794.72 402 848 391.7 848 379C848 422.96 794.72 465 729 465C663.27 465 610 422.96 610 379C610 391.7 663.27 402 729 402Z" fill="#D2F5F5" fill-opacity="1.000000" fill-rule="nonzero"/>
	<path d="M729 402C794.72 402 848 391.7 848 379C848 412.96 816.21 445.76 771.46 458.94C704.23 457.49 649.08 429.84 638.02 393.82C659.85 398.82 692.5 402 729 402Z" fill="#FFFFFF" fill-opacity="1.000000" fill-rule="nonzero"/>
	<path d="M706.5 332L706.49 332C704.76 332 703.23 332.88 702.33 334.21C701.07 333.22 699.34 332.85 697.69 333.38L697.68 333.39C696.03 333.92 694.85 335.23 694.41 336.79C692.9 336.23 691.15 336.42 689.74 337.44L689.73 337.44C688.33 338.46 687.62 340.07 687.68 341.68C686.07 341.62 684.46 342.33 683.44 343.73L683.44 343.74C682.42 345.15 682.23 346.9 682.79 348.41C681.23 348.85 679.92 350.03 679.39 351.68L679.38 351.69C678.85 353.34 679.22 355.07 680.21 356.33C678.88 357.23 678 358.76 678 360.49L678 360.5C678 362.23 678.88 363.76 680.21 364.66C679.22 365.92 678.85 367.65 679.38 369.3L679.39 369.31C679.92 370.96 681.23 372.14 682.79 372.58C682.23 374.09 682.42 375.84 683.44 377.25L683.44 377.26C684.46 378.66 686.07 379.37 687.68 379.31C687.62 380.92 688.33 382.53 689.73 383.55L689.74 383.56C691.15 384.57 692.9 384.76 694.41 384.2C694.85 385.76 696.03 387.07 697.68 387.6L697.69 387.61C699.34 388.14 701.07 387.78 702.33 386.78C703.23 388.11 704.76 389 706.49 389L706.5 389C708.23 389 709.76 388.11 710.66 386.78C711.92 387.78 713.65 388.14 715.3 387.61L715.31 387.6C716.96 387.07 718.14 385.76 718.58 384.2C720.09 384.76 721.84 384.57 723.25 383.56L723.26 383.55C724.66 382.53 725.37 380.92 725.31 379.31C726.92 379.37 728.53 378.66 729.55 377.26L729.56 377.25C730.57 375.84 730.76 374.09 730.2 372.58C731.76 372.14 733.07 370.96 733.6 369.31L733.61 369.3C734.14 367.65 733.78 365.92 732.78 364.66C734.11 363.76 735 362.23 735 360.5L735 360.49C735 358.76 734.11 357.23 732.78 356.33C733.78 355.07 734.14 353.34 733.61 351.69L733.6 351.68C733.07 350.03 731.76 348.85 730.2 348.41C730.76 346.9 730.57 345.15 729.56 343.74L729.55 343.73C728.53 342.33 726.92 341.62 725.31 341.68C725.37 340.07 724.66 338.46 723.26 337.44L723.25 337.44C721.84 336.42 720.09 336.23 718.58 336.79C718.14 335.23 716.96 333.92 715.31 333.39L715.3 333.38C713.65 332.85 711.92 333.22 710.66 334.21C709.76 332.88 708.23 332 706.5 332Z" fill="#CA5919" fill-opacity="1.000000" fill-rule="nonzero"/>
	<path d="M723.38 322.38C724.51 318.43 723.57 314.09 720.55 311.07C717.53 308.04 713.19 307.11 709.24 308.24C708.11 312.19 709.05 316.53 712.07 319.55C715.09 322.57 719.43 323.51 723.38 322.38Z" fill="#93E6B8" fill-opacity="1.000000" fill-rule="nonzero"/>
	<path d="M729 319.19C732.52 321.3 736.96 321.52 740.66 319.39C744.36 317.25 746.38 313.3 746.32 309.19C742.79 307.08 738.36 306.86 734.66 309C730.96 311.13 728.93 315.09 729 319.19Z" fill="#93E6B8" fill-opacity="1.000000" fill-rule="nonzero"/>
	<path d="M737.19 341.32C739.3 337.79 739.52 333.36 737.39 329.66C735.25 325.96 731.3 323.93 727.19 324C725.08 327.52 724.86 331.96 727 335.66C729.13 339.36 733.09 341.38 737.19 341.32Z" fill="#93E6B8" fill-opacity="1.000000" fill-rule="nonzero"/>
	<circle cx="665.000000" cy="307.000000" r="3.000000" fill="#973309" fill-opacity="1.000000"/>
	<circle cx="646.000000" cy="314.000000" r="3.000000" fill="#973309" fill-opacity="1.000000"/>
	<circle cx="652.000000" cy="304.000000" r="3.000000" fill="#973309" fill-opacity="1.000000"/>
	<circle cx="719.000000" cy="350.000000" r="3.000000" fill="#973309" fill-opacity="1.000000"/>
	<circle cx="721.000000" cy="360.000000" r="3.000000" fill="#973309" fill-opacity="1.000000"/>
	<circle cx="771.000000" cy="310.000000" r="3.000000" fill="#973309" fill-opacity="1.000000"/>
	<circle cx="784.000000" cy="308.000000" r="3.000000" fill="#973309" fill-opacity="1.000000"/>
	<circle cx="704.000000" cy="356.000000" r="3.000000" fill="#973309" fill-opacity="1.000000"/>
	<rect width="458.000000" height="415.000000" transform="translate(900.000000 33.000000)" fill="#FFFFFF" fill-opacity="0"/>
	<g clip-path="url(#clip135_357)">
		<path d="M1354.38 350.09C1339.08 300.53 1214.31 234.45 1191.38 224.78C1114.86 204.02 1062.5 266.23 1039.53 301.92C1033.68 310.99 1018.36 311.29 1011.31 303.13C996.14 285.58 970.63 267.37 939.84 290.05C898.84 320.26 967.21 416.57 993.77 431.07C1015.02 442.68 1084.32 413.75 1093.57 371.44C1132.22 377.08 1149.12 378.29 1206.67 394.41C1201.67 403.28 1203.67 428.76 1213.02 438.92C1213.84 439.81 1214.88 440.45 1215.98 440.93C1240.12 451.4 1267.03 446.74 1283.14 445.98C1327.41 442.76 1369.67 399.65 1354.38 350.09Z" fill="#E5F8BC" fill-opacity="1.000000" fill-rule="nonzero"/>
		<path d="M1134.75 73.85C1091.65 62.07 1083.6 88.04 1084.96 102.5C1062.1 86.95 1040.06 136.05 1040.06 202.35C1040.06 268.64 1080.06 272.74 1107.81 269.46C1135.56 266.19 1161.56 204.88 1180.51 238.08C1184.59 245.21 1214.66 250.31 1228.81 249.36C1248.23 248.05 1258.29 277.91 1266.24 249.36C1282.74 190.13 1213.06 180.36 1217.14 134.53C1221.22 88.7 1188.63 88.58 1134.75 73.85Z" fill="#0E0E10" fill-opacity="1.000000" fill-rule="nonzero"/>
		<path d="M1073.94 147.94C1059.31 191.85 1073.76 244.44 1105.76 237.81C1114.01 257.35 1080.35 286.83 1122.59 286.83C1148.24 286.83 1170.69 270.54 1184.88 257.94C1190.43 253.01 1190.18 244.32 1185.53 238.55C1176.8 227.76 1168.04 214.46 1167.29 197.79C1174.88 197.79 1186.67 194.79 1180.92 182.88C1175.23 171.12 1168.06 178.22 1163.6 182.19C1163.09 182.64 1162.43 182.9 1161.76 182.92C1155.31 183.05 1120.98 182.09 1105.76 147.94C1088.93 110.19 1092.25 93.06 1073.94 147.94Z" fill="#DD9E86" fill-opacity="1.000000" fill-rule="nonzero"/>
		<path d="M1081.92 209.67C1082.11 207.9 1089.67 207.29 1091.54 211.53C1093.75 207.29 1106.23 205.37 1111.68 208.87C1105.25 215.11 1105.98 221.56 1092.53 221.56C1087.31 221.56 1085.1 216.26 1084.54 213.35C1083.84 212.6 1081.74 211.44 1081.92 209.67Z" fill="#99060C" fill-opacity="1.000000" fill-rule="nonzero"/>
		<path d="M1078.66 169.59C1075.17 168.76 1071.24 169.07 1068.68 171.71L1070.99 173.95C1071.85 173.06 1073.12 172.54 1074.64 172.43C1073.68 173.16 1073.06 174.32 1073.06 175.63C1073.06 177.85 1074.86 179.66 1077.07 179.66C1079.3 179.66 1081.11 177.85 1081.11 175.63C1081.11 174.92 1080.92 174.25 1080.6 173.67C1082.53 174.56 1084.27 175.87 1085.47 177.42L1088.02 175.45C1085.77 172.55 1082.19 170.44 1078.66 169.59Z" fill="#632914" fill-opacity="1.000000" fill-rule="nonzero"/>
		<path d="M1114.11 181.27C1111.89 181.27 1110.07 179.46 1110.07 177.24C1110.07 175.93 1110.69 174.77 1111.66 174.04C1110.14 174.16 1108.88 174.68 1108.02 175.56L1105.71 173.32C1108.26 170.68 1112.18 170.37 1115.68 171.2C1119.23 172.05 1122.8 174.16 1125.04 177.06L1122.5 179.03C1121.3 177.48 1119.55 176.17 1117.63 175.28C1117.94 175.86 1118.13 176.53 1118.13 177.24C1118.13 179.46 1116.32 181.27 1114.11 181.27Z" fill="#632914" fill-opacity="1.000000" fill-rule="nonzero"/>
		<path d="M1084.43 157.97C1083.1 157.03 1070.99 150.51 1065.01 163.33C1069.51 160.54 1076.71 161.85 1083.28 163.33C1089.43 164.71 1085.77 158.91 1084.43 157.97Z" fill="#0E0E10" fill-opacity="1.000000" fill-rule="nonzero"/>
		<path d="M1109.6 157.92C1114.56 155.84 1126.62 157.04 1133.43 169.18C1128.31 166.54 1119.02 162.5 1111.54 163.91C1104.53 165.22 1106.73 158.8 1109.6 157.92Z" fill="#0E0E10" fill-opacity="1.000000" fill-rule="nonzero"/>
		<path d="M1197.29 358.44C1203.18 363.41 1211.81 361.95 1219.84 360.58C1222.59 360.11 1225.22 361.72 1225.86 364.39C1227.98 373.29 1231.35 393.45 1223.37 409.33C1220.57 414.9 1204.43 394.15 1198.22 397.23C1179.82 403.33 1177.69 394.41 1170.05 393.2C1162.4 391.99 1157.56 398.44 1152.75 402.47C1147.92 406.5 1139.87 404.88 1140.27 400.85C1140.59 397.63 1151.93 388.77 1157.56 384.74C1155.29 384.2 1149.53 383.21 1144.69 383.53C1138.66 383.93 1132.22 395.21 1124.17 399.65C1117.73 403.19 1115.31 398.97 1114.91 396.42C1114.65 397.77 1109.68 399.34 1106.06 398.44C1098.01 396.42 1102.04 387.96 1106.06 384.74C1109.28 382.16 1124.84 367.56 1132.22 360.58C1128.46 360.58 1120.15 361.14 1116.93 363.38C1112.9 366.19 1101.63 371.44 1098.81 368.22C1096 365 1096.4 360.58 1114.91 351.3C1140.4 338.52 1161.19 336.79 1173.67 340.42C1186.15 344.04 1190.05 352.61 1197.29 358.44Z" fill="#DD9E86" fill-opacity="1.000000" fill-rule="nonzero"/>
		<path d="M992.08 300.27C990.71 292.24 989.25 283.6 994.22 277.7C994.48 277.38 994.75 277.05 995.02 276.71C1000.8 269.53 1008.8 259.58 1013.03 248.42C1013.51 247.46 1014.12 246.39 1014.81 245.21C1018.72 238.4 1024.97 227.52 1021.89 209.34C1021.47 206.9 1021.08 204.49 1020.69 202.12C1017.7 183.72 1015.1 167.77 1006.19 160.99C996.12 153.33 980.02 147.69 974.39 150.91C971.17 156.55 974.39 163.4 980.02 162.2C981.96 162.84 984.05 166.22 984.85 167.84C983.24 169.45 980.02 173.4 980.02 176.3C976.4 173.48 970.77 173.88 968.76 177.91C964.73 176.3 955.47 179.12 955.07 185.16C954.75 190 956.28 195.77 957.08 198.05C952.62 197.92 944.11 199.99 945.76 209.34C947.83 221.02 954.67 219.81 957.08 216.19C957.08 217.54 957.05 218.76 957.02 219.86C956.91 224.34 956.84 227.06 959.1 230.29C959.93 231.47 958.13 233.8 955.46 237.24C949.09 245.48 937.78 260.1 945.76 280.77C947.22 283.71 945.51 288.42 943.91 292.84C942.12 297.76 940.46 302.34 943.39 303.81C959.25 311.8 979.39 308.43 988.28 306.3C990.95 305.66 992.55 303.03 992.08 300.27ZM995.93 187.27C993.71 184.36 992.49 180.14 991.87 176.5C992.24 181.78 988.05 184.89 985.91 185.78C988.49 191.13 994.28 201.34 996.78 199.39C999.92 196.95 998.16 190.19 995.93 187.27Z" fill="#DD9E86" fill-opacity="1.000000" fill-rule="evenodd"/>
		<path d="M908.92 175.91L909.81 174.18C909.81 174.18 924.31 178.18 931.43 177.04C937.69 176.04 942.24 174.76 946.07 177.04C953.36 175.1 1013.21 151.85 1028.05 151.71C1042.9 151.58 1045 158.81 1033.28 164.13C1021.56 169.45 963.56 174.91 949.88 186.69C941.37 193.97 936.59 198.46 902.76 185.64L903.75 183.84C903.75 183.84 924.1 189.59 924.69 187.46C925.11 186.58 906.37 181.12 906.37 181.12L907.41 179.12C907.41 179.12 925.72 183.58 926.15 182.35C926.57 181.12 908.92 175.91 908.92 175.91Z" fill="#FFFFFF" fill-opacity="1.000000" fill-rule="nonzero"/>
		<path d="M1090.09 178.04C1090.09 178.04 1088.54 187.41 1089.43 194.36C1090.32 201.31 1098.81 198.38 1098.81 198.38" stroke="#BE724D" stroke-opacity="1.000000" stroke-width="4.000000" stroke-linejoin="round"/>
	</g>
	<rect width="66.000000" height="227.000000" transform="translate(916.000000 279.000000)" fill="#FFFFFF" fill-opacity="0"/>
	<path d="M916 331C916 328.23 930.77 326 949 326C967.22 326 982 328.23 982 331L982 501C982 503.76 967.22 506 949 506C930.77 506 916 503.76 916 501L916 331Z" fill="#CEF9E9" fill-opacity="1.000000" fill-rule="evenodd"/>
	<path d="M924 351L974 351L974 450C974 463.8 962.8 475 949 475C935.19 475 924 463.8 924 450L924 351Z" fill="#25BE7C" fill-opacity="1.000000" fill-rule="nonzero"/>
	<ellipse cx="949.000000" cy="351.000000" rx="25.000000" ry="3.000000" fill="#179443" fill-opacity="1.000000"/>
	<path d="M954.102 365C952.551 366.991 951.626 369.496 951.626 372.216C951.626 378.114 955.972 382.997 961.635 383.839C963.187 381.847 964.111 379.343 964.111 376.623C964.111 370.725 959.766 365.841 954.102 365Z" clip-rule="evenodd" fill="#09190F" fill-opacity="1.000000" fill-rule="evenodd"/>
	<path d="M949.938 451.912C953.453 453.938 957.924 454.085 961.69 451.911C965.457 449.736 967.564 445.791 967.568 441.733C964.052 439.707 959.582 439.559 955.815 441.734C952.048 443.909 949.941 447.854 949.938 451.912Z" clip-rule="evenodd" fill="#09190F" fill-opacity="1.000000" fill-rule="evenodd"/>
	<path d="M944.875 392.192C945.86 393.91 946.423 395.902 946.423 398.025C946.423 404.515 941.162 409.776 934.672 409.776C933.947 409.776 933.237 409.71 932.548 409.584C931.563 407.865 931 405.874 931 403.751C931 397.261 936.261 392 942.751 392C943.476 392 944.186 392.066 944.875 392.192Z" clip-rule="evenodd" fill="#09190F" fill-opacity="1.000000" fill-rule="evenodd"/>
	<path d="M931 384L951 294" stroke="#03401B" stroke-opacity="1.000000" stroke-width="2.000000" stroke-linejoin="round"/>
	<circle cx="952.500000" cy="287.500000" r="7.500000" stroke="#03401B" stroke-opacity="1.000000" stroke-width="2.000000" stroke-linejoin="round"/>
	<path d="M969.05 424C966.01 418.74 961.13 415.21 955.69 413.75C949.83 412.17 943.88 413.13 939 415.95C933.74 418.98 930.21 423.86 928.75 429.3C927.17 435.16 928.13 441.11 930.94 446L950 435L969.05 424Z" fill="#03401B" fill-opacity="1.000000" fill-rule="evenodd"/>
	<path d="M964.72 426.5C962.37 422.43 958.6 419.71 954.39 418.58C949.87 417.36 945.27 418.1 941.5 420.28C937.43 422.62 934.71 426.39 933.58 430.6C932.36 435.13 933.1 439.72 935.27 443.5L950 435L964.72 426.5Z" fill="#179443" fill-opacity="1.000000" fill-rule="evenodd"/>
	<path d="M953.46 433C952.91 432.04 952.02 431.4 951.03 431.13C949.96 430.85 948.88 431.02 948 431.53C947.04 432.08 946.4 432.97 946.13 433.96C945.85 435.03 946.02 436.11 946.53 437L950 435L953.46 433Z" fill="#CEF9E9" fill-opacity="1.000000" fill-rule="evenodd"/>
	<g opacity="0.500000">
		<rect x="940.000000" y="396.910156" rx="2.000000" width="13.820455" height="13.820455" transform="rotate(-30 940.000000 396.910156)" fill="#FFFFFF" fill-opacity="1.000000"/>
	</g>
	<g opacity="0.500000">
		<rect x="956.910156" y="373.000000" rx="2.000000" width="13.820455" height="13.820455" transform="rotate(30 956.910156 373.000000)" fill="#FFFFFF" fill-opacity="1.000000"/>
	</g>
	<g opacity="0.500000">
		<rect x="956.910156" y="406.000000" rx="2.000000" width="13.820455" height="13.820455" transform="rotate(30 956.910156 406.000000)" fill="#FFFFFF" fill-opacity="1.000000"/>
	</g>
	<g opacity="0.500000">
		<rect x="937.318848" y="365.000000" rx="2.000000" width="13.820455" height="13.820455" transform="rotate(5.47558 937.318848 365.000000)" fill="#FFFFFF" fill-opacity="1.000000"/>
	</g>
	<g opacity="0.500000">
		<rect rx="2.000000" width="13.820455" height="13.820455" transform="matrix(0.866025 0.5 0.5 -0.866025 932 462.09)" fill="#FFFFFF" fill-opacity="1.000000"/>
	</g>
</svg>
